<svg id="svg" version="1.1" xmlns="http://www.w3.org/2000/svg" xmlns:xlink="http://www.w3.org/1999/xlink" width="400" height="400" viewBox="0, 0, 400,400"><g id="svgg"><path id="path0" d="M228.062 88.106 C 228.138 88.436,232.700 98.082,238.200 109.541 L 248.200 130.376 271.575 130.388 L 294.951 130.400 294.175 129.584 C 293.749 129.136,292.886 128.165,292.258 127.426 C 290.749 125.651,280.688 115.596,278.965 114.142 C 278.221 113.514,277.217 112.595,276.734 112.100 C 276.251 111.605,275.661 111.200,275.424 111.200 C 275.187 111.200,274.763 110.833,274.483 110.384 C 274.203 109.936,273.809 109.671,273.607 109.796 C 273.405 109.920,273.065 109.695,272.851 109.295 C 272.637 108.896,271.963 108.305,271.352 107.984 C 270.742 107.663,269.802 106.995,269.263 106.500 C 268.724 106.005,268.039 105.600,267.742 105.600 C 267.444 105.600,267.200 105.420,267.200 105.200 C 267.200 104.980,266.930 104.800,266.600 104.800 C 266.270 104.800,266.000 104.648,266.000 104.463 C 266.000 104.278,265.330 103.783,264.511 103.363 C 263.692 102.943,262.675 102.291,262.250 101.914 C 261.826 101.536,261.326 101.322,261.139 101.437 C 260.953 101.553,260.800 101.460,260.800 101.231 C 260.800 101.002,260.350 100.702,259.800 100.564 C 259.250 100.426,258.800 100.142,258.800 99.933 C 258.800 99.724,258.635 99.655,258.434 99.779 C 258.233 99.903,258.008 99.845,257.934 99.650 C 257.735 99.123,248.934 94.799,248.647 95.087 C 248.511 95.222,248.400 95.123,248.400 94.867 C 248.400 94.610,248.265 94.438,248.100 94.485 C 247.935 94.532,247.395 94.345,246.900 94.071 C 246.405 93.796,245.997 93.713,245.994 93.886 C 245.991 94.059,245.856 94.008,245.694 93.772 C 245.372 93.304,242.000 91.880,242.000 92.212 C 242.000 92.326,241.589 92.149,241.087 91.820 C 240.584 91.491,239.729 91.140,239.187 91.040 C 238.644 90.941,238.155 90.824,238.100 90.780 C 238.045 90.736,237.820 90.655,237.600 90.600 C 237.380 90.545,237.110 90.455,237.000 90.400 C 236.890 90.345,236.620 90.255,236.400 90.200 C 236.180 90.145,235.910 90.055,235.800 90.000 C 235.690 89.945,235.465 89.862,235.300 89.815 C 235.135 89.769,234.730 89.614,234.400 89.470 C 234.070 89.327,233.440 89.144,233.000 89.065 C 232.560 88.985,231.930 88.808,231.600 88.672 C 231.270 88.535,230.508 88.340,229.907 88.239 C 229.305 88.138,228.613 87.932,228.368 87.780 C 228.102 87.616,227.979 87.747,228.062 88.106 M159.200 89.954 C 141.995 95.634,127.315 104.135,113.875 116.202 C 109.269 120.338,100.809 129.464,100.803 130.303 C 100.801 130.703,105.467 130.785,123.477 130.703 L 146.154 130.600 156.277 109.600 C 161.844 98.050,166.399 88.465,166.399 88.300 C 166.400 87.722,164.953 88.055,159.200 89.954 M79.285 169.500 C 79.313 170.105,79.197 171.095,79.025 171.700 L 78.713 172.800 102.186 172.800 L 125.659 172.800 126.330 171.204 C 126.698 170.326,127.225 169.606,127.500 169.604 C 127.775 169.602,128.000 169.330,128.000 169.000 C 128.000 168.473,125.024 168.400,103.616 168.400 L 79.232 168.400 79.285 169.500 M267.397 169.897 C 267.554 170.284,267.861 171.095,268.080 171.700 L 268.478 172.800 292.839 172.800 C 306.238 172.800,317.200 172.650,317.200 172.467 C 317.200 172.283,317.065 171.998,316.900 171.833 C 316.735 171.668,316.578 171.368,316.550 171.167 C 316.523 170.965,316.455 170.710,316.400 170.600 C 316.345 170.490,316.278 170.175,316.250 169.900 C 316.211 169.507,310.937 169.378,291.656 169.297 C 268.375 169.199,267.127 169.230,267.397 169.897 M320.116 196.132 C 318.470 198.837,318.761 198.800,298.932 198.800 L 281.184 198.800 281.992 200.385 L 282.801 201.970 296.569 202.085 C 315.705 202.245,315.235 201.555,305.531 215.232 C 301.876 220.385,298.506 224.943,298.043 225.362 C 297.579 225.781,297.200 226.309,297.200 226.536 C 297.200 226.763,296.833 227.340,296.384 227.818 L 295.567 228.687 303.140 244.443 C 307.305 253.110,310.867 260.110,311.056 260.000 C 311.245 259.890,311.355 259.665,311.300 259.500 C 311.245 259.335,311.380 259.200,311.600 259.200 C 311.820 259.200,311.962 259.065,311.915 258.900 C 311.868 258.735,312.055 258.195,312.329 257.700 C 312.604 257.205,312.687 256.797,312.514 256.794 C 312.341 256.791,312.392 256.656,312.628 256.494 C 313.096 256.172,314.520 252.800,314.188 252.800 C 314.074 252.800,314.251 252.389,314.580 251.887 C 314.909 251.384,315.260 250.529,315.360 249.987 C 315.459 249.444,315.576 248.955,315.620 248.900 C 315.664 248.845,315.745 248.620,315.800 248.400 C 315.855 248.180,315.945 247.910,316.000 247.800 C 316.055 247.690,316.145 247.420,316.200 247.200 C 316.255 246.980,316.345 246.710,316.400 246.600 C 316.455 246.490,316.538 246.265,316.585 246.100 C 316.631 245.935,316.786 245.530,316.930 245.200 C 317.073 244.870,317.256 244.240,317.335 243.800 C 317.415 243.360,317.592 242.730,317.728 242.400 C 317.865 242.070,318.063 241.350,318.168 240.800 C 318.334 239.930,318.585 238.835,318.948 237.400 C 319.003 237.180,319.162 236.640,319.301 236.200 C 319.440 235.760,319.656 234.704,319.782 233.853 C 319.908 233.003,320.085 232.187,320.175 232.040 C 320.266 231.894,320.463 230.880,320.614 229.787 C 320.765 228.694,320.954 227.350,321.036 226.800 C 321.928 220.766,322.173 216.836,322.172 208.600 C 322.171 200.821,321.866 194.933,321.441 194.508 C 321.326 194.393,320.730 195.124,320.116 196.132 M73.457 200.476 C 73.200 202.745,73.423 217.401,73.760 220.400 C 74.004 222.565,74.364 225.430,74.565 226.800 C 74.646 227.350,74.835 228.694,74.986 229.787 C 75.137 230.880,75.334 231.894,75.425 232.040 C 75.515 232.187,75.692 233.003,75.818 233.853 C 75.944 234.704,76.160 235.760,76.299 236.200 C 76.438 236.640,76.597 237.180,76.652 237.400 C 77.015 238.835,77.266 239.930,77.432 240.800 C 77.537 241.350,77.735 242.070,77.872 242.400 C 78.008 242.730,78.185 243.360,78.265 243.800 C 78.344 244.240,78.527 244.870,78.670 245.200 C 78.814 245.530,78.969 245.935,79.015 246.100 C 79.062 246.265,79.145 246.490,79.200 246.600 C 79.255 246.710,79.345 246.980,79.400 247.200 C 79.455 247.420,79.545 247.690,79.600 247.800 C 79.655 247.910,79.745 248.180,79.800 248.400 C 79.855 248.620,79.936 248.845,79.980 248.900 C 80.024 248.955,80.141 249.444,80.240 249.987 C 80.340 250.529,80.691 251.384,81.020 251.887 C 81.349 252.389,81.526 252.800,81.412 252.800 C 81.080 252.800,82.504 256.172,82.972 256.494 C 83.208 256.656,83.259 256.791,83.086 256.794 C 82.913 256.797,82.996 257.205,83.271 257.700 C 83.545 258.195,83.732 258.735,83.685 258.900 C 83.037 261.189,85.468 256.554,91.322 244.341 L 98.444 229.483 97.222 228.223 C 96.550 227.529,96.000 226.779,96.000 226.556 C 96.000 226.333,95.415 225.723,94.700 225.200 C 93.985 224.677,93.195 223.969,92.943 223.625 C 92.692 223.281,92.062 222.526,91.543 221.948 C 91.025 221.369,90.060 220.214,89.400 219.383 C 88.740 218.551,87.750 217.382,87.200 216.785 C 86.650 216.187,85.660 215.018,85.000 214.186 C 83.851 212.737,83.042 211.794,81.064 209.600 C 78.204 206.426,77.661 204.561,79.161 203.061 C 80.009 202.213,80.256 202.198,95.809 202.087 L 111.597 201.973 112.407 200.387 L 113.216 198.800 94.041 198.800 C 83.494 198.800,74.603 198.699,74.282 198.576 C 73.831 198.403,73.643 198.837,73.457 200.476 M163.507 297.524 C 143.897 308.726,133.645 314.797,133.707 315.172 C 133.758 315.486,133.941 315.704,134.114 315.657 C 134.287 315.610,134.705 315.848,135.043 316.186 C 135.381 316.524,135.914 316.800,136.229 316.800 C 136.543 316.800,136.800 316.991,136.800 317.224 C 136.800 317.457,136.965 317.545,137.166 317.421 C 137.367 317.297,137.592 317.355,137.666 317.550 C 137.865 318.077,146.666 322.401,146.953 322.113 C 147.089 321.978,147.200 322.077,147.200 322.333 C 147.200 322.590,147.335 322.762,147.500 322.715 C 147.665 322.668,148.205 322.855,148.700 323.129 C 149.195 323.404,149.603 323.487,149.606 323.314 C 149.609 323.141,149.744 323.192,149.906 323.428 C 150.228 323.896,153.600 325.320,153.600 324.988 C 153.600 324.874,154.011 325.051,154.513 325.380 C 155.016 325.709,155.871 326.060,156.413 326.160 C 156.956 326.259,157.445 326.376,157.500 326.420 C 157.555 326.464,157.780 326.545,158.000 326.600 C 158.220 326.655,158.490 326.745,158.600 326.800 C 158.710 326.855,158.980 326.945,159.200 327.000 C 159.420 327.055,159.690 327.145,159.800 327.200 C 159.910 327.255,160.135 327.338,160.300 327.385 C 160.465 327.431,160.870 327.586,161.200 327.730 C 161.530 327.873,162.160 328.056,162.600 328.135 C 163.040 328.215,163.670 328.392,164.000 328.528 C 164.330 328.665,165.050 328.863,165.600 328.968 C 166.470 329.134,167.565 329.385,169.000 329.748 C 169.220 329.803,169.760 329.962,170.200 330.101 C 170.640 330.240,171.696 330.456,172.547 330.582 C 173.397 330.708,174.213 330.885,174.360 330.975 C 174.506 331.066,175.520 331.263,176.613 331.414 C 177.706 331.565,179.050 331.754,179.600 331.836 C 185.632 332.727,189.564 332.973,197.800 332.973 C 206.036 332.973,209.968 332.727,216.000 331.836 C 216.550 331.754,217.894 331.565,218.987 331.414 C 220.080 331.263,221.094 331.066,221.240 330.975 C 221.387 330.885,222.203 330.708,223.053 330.582 C 223.904 330.456,224.960 330.240,225.400 330.101 C 225.840 329.962,226.380 329.803,226.600 329.748 C 228.035 329.385,229.130 329.134,230.000 328.968 C 230.550 328.863,231.270 328.665,231.600 328.528 C 231.930 328.392,232.560 328.215,233.000 328.135 C 233.440 328.056,234.070 327.873,234.400 327.730 C 234.730 327.586,235.135 327.431,235.300 327.385 C 235.465 327.338,235.690 327.255,235.800 327.200 C 235.910 327.145,236.180 327.055,236.400 327.000 C 236.620 326.945,236.890 326.855,237.000 326.800 C 237.110 326.745,237.380 326.655,237.600 326.600 C 237.820 326.545,238.045 326.464,238.100 326.420 C 238.155 326.376,238.644 326.259,239.187 326.160 C 239.729 326.060,240.584 325.709,241.087 325.380 C 241.589 325.051,242.000 324.874,242.000 324.988 C 242.000 325.320,245.372 323.896,245.694 323.428 C 245.856 323.192,245.991 323.141,245.994 323.314 C 245.997 323.487,246.405 323.404,246.900 323.129 C 247.395 322.855,247.935 322.668,248.100 322.715 C 248.265 322.762,248.400 322.590,248.400 322.333 C 248.400 322.077,248.511 321.978,248.647 322.113 C 248.941 322.408,257.671 318.099,258.094 317.450 C 258.256 317.203,258.391 317.142,258.394 317.316 C 258.397 317.489,258.655 317.399,258.967 317.116 C 259.278 316.832,259.413 316.484,259.267 316.342 C 258.956 316.042,193.687 280.388,193.515 280.424 C 193.452 280.438,179.948 288.133,163.507 297.524 " stroke="none" fill="#e85555" fill-rule="evenodd"></path><path id="path1" d="M196.000 28.109 C 195.276 28.464,194.183 30.270,192.041 34.647 L 189.082 40.694 185.041 40.962 C 128.900 44.682,78.091 77.258,51.627 126.500 L 49.531 130.400 37.392 130.400 C 18.630 130.400,18.760 130.081,31.212 145.616 L 39.286 155.687 37.873 160.743 C 36.073 167.189,35.042 171.777,34.040 177.800 C 32.419 187.554,32.200 190.736,32.200 204.600 C 32.200 239.618,42.179 271.545,61.753 299.151 L 63.562 301.702 62.630 303.551 C 60.882 307.019,32.523 366.198,32.278 366.889 C 31.597 368.808,34.014 371.216,35.911 370.510 C 36.290 370.369,50.010 362.609,66.400 353.266 C 82.790 343.923,96.491 336.202,96.848 336.107 C 97.205 336.011,98.907 336.949,100.648 338.201 C 122.396 353.844,149.384 364.128,178.000 367.679 C 183.688 368.385,207.912 368.385,213.600 367.679 C 242.319 364.116,268.970 353.942,291.129 338.082 L 294.458 335.699 325.929 352.896 C 343.238 362.354,357.798 370.244,358.285 370.430 C 360.596 371.314,362.863 368.880,361.959 366.485 C 361.734 365.888,354.416 350.571,345.698 332.447 C 330.161 300.149,329.858 299.474,330.470 298.447 C 330.813 297.871,332.635 294.958,334.517 291.974 C 345.930 273.884,354.027 252.599,357.558 231.400 C 359.181 221.661,359.400 218.468,359.400 204.600 C 359.400 195.842,359.214 189.505,358.879 186.800 C 357.670 177.055,355.629 166.956,353.286 159.130 L 352.128 155.261 360.020 145.235 C 371.901 130.140,372.011 130.400,353.808 130.400 L 342.069 130.400 339.973 126.500 C 314.718 79.507,266.370 47.030,213.600 41.611 C 211.290 41.374,208.481 41.085,207.358 40.968 L 205.316 40.757 202.602 34.990 C 199.303 27.978,198.330 26.964,196.000 28.109 M221.210 80.242 C 248.236 136.409,245.745 130.800,243.658 130.800 C 242.011 130.800,240.400 132.128,240.400 133.487 C 240.400 134.388,240.113 134.179,232.533 127.757 C 228.610 124.433,219.318 116.558,211.884 110.257 C 200.949 100.987,198.147 98.800,197.208 98.800 C 196.268 98.800,191.878 102.246,174.020 117.001 C 149.490 137.271,151.313 135.963,150.552 133.827 C 150.243 132.961,149.726 131.960,149.401 131.602 C 148.857 131.000,196.372 30.800,197.202 30.800 C 197.322 30.800,208.125 53.049,221.210 80.242 M185.444 48.900 C 184.056 51.815,179.611 61.085,175.565 69.500 L 168.208 84.799 166.004 85.397 C 139.808 92.501,116.666 107.119,100.301 126.900 L 97.075 130.800 74.937 130.800 C 61.677 130.800,52.800 130.652,52.800 130.431 C 52.800 129.663,58.225 120.380,61.828 114.982 C 82.833 83.511,114.735 60.208,151.118 49.759 C 161.976 46.640,176.648 44.113,186.483 43.667 L 187.967 43.600 185.444 48.900 M214.812 44.606 C 261.815 50.318,303.590 75.964,329.804 115.200 C 333.570 120.837,338.800 129.727,338.800 130.491 C 338.800 130.661,329.752 130.800,318.693 130.800 L 298.586 130.800 295.526 127.100 C 278.908 107.009,253.864 91.173,229.600 85.414 C 227.950 85.022,226.401 84.499,226.157 84.251 C 225.804 83.891,207.635 46.370,206.909 44.500 C 206.647 43.825,208.602 43.852,214.812 44.606 M236.002 89.829 C 253.017 95.307,268.219 104.076,281.725 116.202 C 286.331 120.338,294.791 129.464,294.797 130.303 C 294.799 130.703,290.013 130.785,271.522 130.703 L 248.244 130.600 238.700 110.800 C 233.450 99.910,228.807 90.215,228.381 89.256 L 227.606 87.512 229.046 87.782 C 229.838 87.931,232.969 88.852,236.002 89.829 M166.400 88.323 C 166.400 88.754,146.468 130.092,146.066 130.494 C 145.894 130.666,135.519 130.760,123.011 130.703 L 100.268 130.600 102.398 128.000 C 112.056 116.209,127.025 104.518,142.000 97.072 C 152.356 91.922,166.400 86.887,166.400 88.323 M212.181 135.300 C 220.291 153.835,226.990 169.360,227.068 169.800 C 227.145 170.240,222.378 184.190,216.473 200.800 L 205.737 231.000 194.155 231.106 L 182.573 231.212 173.408 203.315 C 168.368 187.972,164.266 175.145,164.293 174.809 C 164.359 173.990,196.896 101.600,197.197 101.600 C 197.328 101.600,204.070 116.765,212.181 135.300 M177.726 138.139 C 169.653 156.107,162.920 170.672,162.761 170.504 C 162.532 170.261,152.464 139.788,152.256 138.708 C 152.201 138.422,192.101 105.220,192.301 105.386 C 192.357 105.432,185.798 120.171,177.726 138.139 M219.704 120.246 C 229.217 128.301,237.474 135.366,238.054 135.946 L 239.107 137.000 233.971 151.400 C 231.146 159.320,228.779 165.944,228.711 166.119 C 228.613 166.372,219.199 145.044,202.925 107.700 C 202.422 106.545,202.099 105.600,202.209 105.600 C 202.318 105.600,210.191 112.191,219.704 120.246 M170.573 202.893 C 183.128 241.114,193.490 272.387,193.600 272.388 C 193.710 272.390,204.870 241.142,218.400 202.948 C 231.930 164.755,243.180 133.435,243.400 133.350 C 243.620 133.264,271.222 133.241,304.737 133.297 L 365.673 133.400 352.737 149.875 L 339.800 166.349 290.950 166.375 L 242.100 166.400 236.870 178.100 C 228.731 196.305,227.632 198.800,227.746 198.800 C 227.805 198.800,231.620 193.670,236.225 187.400 L 244.596 176.000 287.520 176.000 L 330.445 176.000 323.723 185.988 L 317.000 195.976 278.365 195.988 L 239.730 196.000 229.893 211.800 C 224.483 220.490,220.097 227.600,220.147 227.600 C 220.197 227.600,225.090 222.472,231.019 216.204 L 241.800 204.808 275.720 204.804 C 303.922 204.801,309.586 204.890,309.320 205.335 C 309.144 205.629,306.214 209.769,302.810 214.535 L 296.619 223.200 265.408 223.200 L 234.196 223.200 214.198 249.588 C 203.199 264.101,194.110 275.975,194.000 275.974 C 193.890 275.973,184.710 264.099,173.601 249.586 L 153.402 223.200 124.791 223.200 L 96.180 223.200 89.190 214.917 C 85.345 210.361,81.872 206.221,81.471 205.717 L 80.742 204.800 114.271 204.803 L 147.800 204.805 157.796 215.403 C 166.700 224.841,168.979 227.161,167.719 225.500 C 167.510 225.225,163.142 218.475,158.013 210.500 L 148.686 196.000 111.643 195.988 L 74.600 195.976 68.731 189.088 C 65.503 185.300,61.665 180.805,60.201 179.100 L 57.540 176.000 101.470 176.001 L 145.400 176.001 152.947 187.021 C 157.097 193.081,160.559 197.974,160.639 197.894 C 160.719 197.814,159.111 193.800,157.066 188.974 C 155.021 184.148,152.036 177.095,150.433 173.300 L 147.518 166.400 99.459 166.380 L 51.400 166.360 38.800 150.575 C 31.870 141.893,25.953 134.432,25.650 133.994 C 25.102 133.200,25.267 133.198,86.423 133.299 L 147.745 133.400 170.573 202.893 M351.038 161.460 C 361.629 199.550,357.630 241.147,339.984 276.444 C 335.438 285.537,328.586 296.789,328.001 296.122 C 327.846 295.945,324.290 288.659,320.100 279.932 L 312.480 264.064 314.593 259.132 C 323.080 239.315,326.625 216.456,324.429 195.691 L 323.868 190.383 328.334 183.720 C 334.775 174.111,334.520 173.200,325.384 173.200 L 320.075 173.200 319.438 171.329 C 319.087 170.300,318.800 169.400,318.800 169.329 C 318.800 169.258,323.408 169.200,329.040 169.200 C 341.552 169.200,340.528 169.590,345.800 162.820 C 348.000 159.994,349.857 157.736,349.927 157.802 C 349.997 157.867,350.497 159.513,351.038 161.460 M45.015 162.300 C 46.722 164.445,48.667 166.785,49.337 167.500 L 50.557 168.800 63.678 168.800 C 70.895 168.800,76.800 168.948,76.800 169.129 C 76.800 169.310,76.513 170.300,76.162 171.329 L 75.525 173.200 66.344 173.200 L 57.164 173.200 56.182 174.182 C 54.365 175.999,54.645 176.489,63.215 186.468 L 71.230 195.800 70.938 198.800 C 69.178 216.881,73.106 240.662,80.795 258.485 C 81.677 260.528,82.399 262.410,82.399 262.667 C 82.400 263.195,65.721 298.019,65.224 298.529 C 64.794 298.969,58.838 289.959,54.969 283.018 C 34.890 246.990,29.431 203.268,40.016 163.263 C 41.559 157.432,41.198 157.501,45.015 162.300 M128.000 169.000 C 128.000 169.330,127.856 169.600,127.680 169.600 C 127.504 169.600,126.966 170.410,126.485 171.400 L 125.610 173.200 101.959 173.200 L 78.307 173.200 78.556 172.100 C 78.693 171.495,78.918 170.415,79.055 169.700 L 79.305 168.400 103.652 168.400 C 125.028 168.400,128.000 168.473,128.000 169.000 M316.439 169.900 C 316.670 170.505,316.958 171.495,317.079 172.100 L 317.300 173.200 293.057 173.200 L 268.813 173.200 267.807 171.213 C 267.253 170.121,266.800 169.131,266.800 169.013 C 266.800 168.896,277.874 168.800,291.410 168.800 L 316.020 168.800 316.439 169.900 M146.000 169.312 C 146.000 169.374,146.632 170.949,147.405 172.812 L 148.810 176.200 147.634 174.800 L 146.459 173.400 137.629 173.278 C 132.177 173.203,128.800 173.006,128.800 172.762 C 128.800 172.546,129.164 171.655,129.608 170.784 L 130.416 169.200 138.208 169.200 C 142.494 169.200,146.000 169.250,146.000 169.312 M264.792 170.784 C 265.236 171.655,265.600 172.555,265.600 172.784 C 265.600 173.061,262.140 173.200,255.226 173.200 C 249.454 173.200,244.397 173.373,243.826 173.590 C 242.500 174.094,242.381 172.493,243.596 170.500 L 244.388 169.200 254.186 169.200 L 263.984 169.200 264.792 170.784 M322.318 204.951 C 322.584 219.235,321.533 228.815,318.408 240.600 C 316.243 248.760,311.719 260.801,310.961 260.418 C 310.762 260.318,307.220 253.215,303.089 244.633 L 295.579 229.031 296.489 227.315 C 296.989 226.372,297.525 225.600,297.680 225.600 C 297.834 225.600,301.119 221.185,304.980 215.788 C 315.220 201.475,315.702 202.246,296.424 202.081 L 282.530 201.962 281.865 200.567 C 281.499 199.800,281.200 199.089,281.200 198.986 C 281.200 198.884,289.093 198.800,298.740 198.800 C 318.432 198.800,318.012 198.856,319.971 195.985 C 321.977 193.044,322.106 193.535,322.318 204.951 M113.098 198.965 C 113.173 199.040,112.923 199.753,112.543 200.550 L 111.852 202.000 96.786 202.000 C 79.269 202.000,78.400 202.149,78.400 205.153 C 78.400 206.084,94.666 225.600,95.441 225.600 C 95.719 225.600,96.061 225.961,96.201 226.402 C 96.341 226.843,96.921 227.758,97.491 228.435 L 98.527 229.667 97.720 231.333 C 97.276 232.250,94.072 238.895,90.600 246.100 C 87.127 253.305,84.148 259.200,83.980 259.200 C 82.612 259.200,76.914 241.090,75.044 230.800 C 73.500 222.302,72.322 199.813,73.366 198.767 C 73.563 198.570,112.900 198.766,113.098 198.965 M148.377 200.250 C 149.534 202.212,150.830 202.072,131.951 202.017 C 112.828 201.962,114.552 202.146,115.457 200.250 L 116.148 198.800 131.835 198.800 L 147.521 198.800 148.377 200.250 M278.926 200.214 C 279.297 200.991,279.600 201.711,279.600 201.814 C 279.600 201.916,271.623 202.000,261.874 202.000 L 244.148 202.000 243.474 200.586 C 243.103 199.809,242.800 199.089,242.800 198.986 C 242.800 198.884,250.777 198.800,260.526 198.800 L 278.252 198.800 278.926 200.214 M241.112 201.792 C 241.050 202.017,239.852 203.280,238.450 204.600 L 235.900 207.000 238.050 203.503 C 239.958 200.400,240.258 200.084,240.712 200.695 C 240.993 201.074,241.173 201.568,241.112 201.792 M117.616 229.799 C 126.919 231.888,134.589 233.655,134.659 233.726 C 134.877 233.944,146.359 272.174,146.242 272.291 C 146.159 272.374,118.079 245.092,100.206 227.563 C 97.977 225.377,97.860 225.362,117.616 229.799 M138.000 226.413 C 138.000 226.765,136.134 230.741,135.785 231.134 C 135.649 231.287,113.488 226.396,113.233 226.157 C 113.142 226.070,118.677 226.000,125.533 226.000 C 133.845 226.000,138.000 226.138,138.000 226.413 M154.185 228.422 C 156.576 231.466,157.171 231.235,147.259 231.108 L 138.801 231.000 139.983 228.500 L 141.166 226.000 146.724 226.000 L 152.282 226.000 154.185 228.422 M252.934 228.467 C 253.519 229.825,253.936 230.998,253.859 231.074 C 253.783 231.150,248.735 231.165,242.641 231.106 L 231.563 231.000 233.421 228.500 L 235.279 226.000 243.574 226.000 L 251.869 226.000 252.934 228.467 M279.800 226.228 C 279.177 226.485,257.917 231.200,257.381 231.200 C 257.005 231.200,254.800 226.905,254.800 226.174 C 254.800 226.078,260.515 226.014,267.500 226.032 C 274.485 226.049,280.020 226.137,279.800 226.228 M292.994 227.563 C 273.434 246.747,247.036 272.369,246.936 272.269 C 246.810 272.144,257.879 233.976,258.097 233.780 C 258.423 233.487,292.042 226.073,293.194 226.040 L 294.588 226.000 292.994 227.563 M326.605 299.329 C 344.573 336.690,359.189 367.344,359.084 367.450 C 358.978 367.555,322.538 347.787,278.104 323.521 L 197.317 279.400 220.647 279.200 L 243.977 279.000 246.489 276.549 C 247.870 275.201,258.980 264.355,271.179 252.448 C 283.377 240.540,293.488 230.933,293.646 231.099 C 293.805 231.264,308.636 261.968,326.605 299.329 M124.400 254.800 C 134.410 264.566,144.089 274.006,145.909 275.778 L 149.217 279.000 169.639 279.200 L 190.060 279.400 112.782 323.519 C 70.279 347.784,35.421 367.554,35.319 367.452 C 35.183 367.316,97.659 236.906,100.090 232.250 C 100.441 231.577,100.773 231.784,103.341 234.272 C 104.913 235.796,114.390 245.033,124.400 254.800 M174.692 255.200 L 190.790 276.200 170.719 276.304 C 159.680 276.361,150.519 276.271,150.361 276.104 C 150.110 275.837,137.600 234.762,137.600 234.204 C 137.600 234.084,142.323 234.035,148.096 234.093 L 158.593 234.200 174.692 255.200 M199.399 248.900 C 196.494 257.095,194.027 264.070,193.916 264.400 C 193.766 264.846,186.725 244.262,183.825 234.900 L 183.546 234.000 194.113 234.000 L 204.680 234.000 199.399 248.900 M255.189 234.300 C 255.183 234.465,252.435 243.960,249.083 255.400 L 242.989 276.200 220.044 276.303 L 197.100 276.407 198.076 275.103 C 198.612 274.386,205.843 264.845,214.145 253.900 L 229.238 234.000 242.219 234.000 C 249.359 234.000,255.195 234.135,255.189 234.300 M227.128 298.551 C 245.511 308.595,259.875 316.679,259.737 316.902 C 258.059 319.616,234.625 328.438,222.818 330.799 C 212.788 332.806,210.578 333.000,197.800 333.000 C 185.022 333.000,182.812 332.806,172.782 330.799 C 158.581 327.959,131.333 316.897,133.421 314.821 C 134.209 314.038,193.420 280.397,193.836 280.496 C 194.076 280.553,209.057 288.678,227.128 298.551 M133.802 318.614 C 170.763 340.466,217.927 341.524,256.726 321.374 C 259.875 319.738,262.649 318.400,262.890 318.400 C 263.472 318.400,291.594 333.729,291.597 334.048 C 291.601 334.405,281.643 341.101,277.447 343.563 C 227.355 372.955,164.245 372.955,114.153 343.563 C 109.879 341.055,100.000 334.403,100.000 334.033 C 100.000 333.636,129.297 316.879,130.067 316.837 C 130.434 316.817,132.115 317.616,133.802 318.614 " stroke="none" fill="#070707" fill-rule="evenodd"></path><path id="path2" d="M184.400 43.875 C 129.616 47.986,80.666 79.396,54.469 127.249 C 53.551 128.926,52.800 130.411,52.800 130.549 C 52.800 130.905,96.515 130.850,97.001 130.494 C 97.222 130.332,98.748 128.580,100.391 126.600 C 115.978 107.826,140.322 92.155,163.201 86.169 C 168.569 84.764,166.981 87.116,178.000 64.242 C 188.161 43.147,187.982 43.562,186.900 43.670 C 186.515 43.708,185.390 43.801,184.400 43.875 M216.573 64.116 L 226.220 84.139 232.610 85.985 C 257.635 93.215,281.196 108.505,296.000 127.123 L 298.600 130.393 318.536 130.396 L 338.472 130.400 336.776 127.300 C 310.812 79.846,264.705 50.023,208.363 44.240 L 206.926 44.093 216.573 64.116 M41.228 159.331 C 32.542 182.083,32.904 223.123,42.051 252.600 C 46.915 268.278,63.351 300.637,65.311 298.397 C 65.406 298.289,69.309 290.240,73.984 280.511 L 82.484 262.822 80.674 258.511 C 75.911 247.169,72.803 235.199,71.141 221.800 C 70.601 217.447,70.449 199.911,70.930 197.521 C 71.226 196.053,71.176 195.981,64.109 187.721 C 54.030 175.943,54.066 176.004,56.126 174.070 C 57.021 173.229,57.355 173.200,66.303 173.200 L 75.554 173.200 76.091 171.300 L 76.628 169.400 63.814 169.199 C 56.766 169.088,50.707 168.853,50.349 168.675 C 49.835 168.420,44.820 162.411,42.130 158.826 C 41.723 158.284,41.602 158.352,41.228 159.331 M345.727 163.322 C 340.766 169.641,341.977 169.200,329.581 169.200 C 323.872 169.200,319.200 169.314,319.200 169.454 C 319.200 169.593,319.408 170.403,319.663 171.254 L 320.127 172.800 325.004 172.800 C 334.957 172.800,335.280 173.913,328.321 184.246 L 324.042 190.600 324.607 195.200 C 327.138 215.792,322.969 241.600,313.934 261.273 L 312.706 263.947 320.420 279.969 L 328.134 295.991 329.407 294.095 C 352.683 259.445,361.546 216.066,353.779 174.800 C 352.852 169.875,350.164 158.830,349.804 158.471 C 349.722 158.388,347.887 160.572,345.727 163.322 M115.784 325.044 C 107.873 329.565,101.150 333.406,100.845 333.579 C 98.617 334.841,125.055 349.721,138.800 354.942 C 188.405 373.783,247.816 366.151,288.932 335.657 L 291.263 333.928 277.026 326.150 L 262.789 318.372 258.894 320.519 C 219.517 342.229,172.061 341.200,131.784 317.763 L 130.167 316.822 115.784 325.044 " stroke="none" fill="#0cbb0c" fill-rule="evenodd"></path><path id="path3" d="M200.428 37.800 C 200.428 38.020,200.686 38.650,201.000 39.200 C 201.314 39.750,201.572 40.020,201.572 39.800 C 201.572 39.580,201.314 38.950,201.000 38.400 C 200.686 37.850,200.428 37.580,200.428 37.800 M188.465 48.617 C 187.795 50.088,187.923 50.402,188.647 49.065 C 188.986 48.440,189.188 47.854,189.096 47.763 C 189.005 47.671,188.721 48.056,188.465 48.617 M183.265 59.417 C 182.595 60.888,182.723 61.202,183.447 59.865 C 183.786 59.240,183.988 58.654,183.896 58.563 C 183.805 58.471,183.521 58.856,183.265 59.417 M210.428 58.600 C 210.428 58.820,210.686 59.450,211.000 60.000 C 211.314 60.550,211.572 60.820,211.572 60.600 C 211.572 60.380,211.314 59.750,211.000 59.200 C 210.686 58.650,210.428 58.380,210.428 58.600 M178.065 70.217 C 177.395 71.688,177.523 72.002,178.247 70.665 C 178.586 70.040,178.788 69.454,178.696 69.363 C 178.605 69.271,178.321 69.656,178.065 70.217 M215.628 69.400 C 215.628 69.620,215.886 70.250,216.200 70.800 C 216.514 71.350,216.772 71.620,216.772 71.400 C 216.772 71.180,216.514 70.550,216.200 70.000 C 215.886 69.450,215.628 69.180,215.628 69.400 M302.400 84.125 C 302.400 84.194,302.985 84.779,303.700 85.425 L 305.000 86.600 303.825 85.300 C 302.730 84.088,302.400 83.816,302.400 84.125 M309.400 90.800 C 310.483 91.900,311.460 92.800,311.570 92.800 C 311.680 92.800,310.883 91.900,309.800 90.800 C 308.717 89.700,307.740 88.800,307.630 88.800 C 307.520 88.800,308.317 89.700,309.400 90.800 M168.065 91.017 C 167.395 92.488,167.523 92.802,168.247 91.465 C 168.586 90.840,168.788 90.254,168.696 90.163 C 168.605 90.071,168.321 90.456,168.065 91.017 M225.628 90.200 C 225.628 90.420,225.886 91.050,226.200 91.600 C 226.514 92.150,226.772 92.420,226.772 92.200 C 226.772 91.980,226.514 91.350,226.200 90.800 C 225.886 90.250,225.628 89.980,225.628 90.200 M314.000 95.725 C 314.000 95.794,314.585 96.379,315.300 97.025 L 316.600 98.200 315.425 96.900 C 314.330 95.688,314.000 95.416,314.000 95.725 M162.865 101.817 C 162.195 103.288,162.323 103.602,163.047 102.265 C 163.386 101.640,163.588 101.054,163.496 100.963 C 163.405 100.871,163.121 101.256,162.865 101.817 M230.828 101.000 C 230.828 101.220,231.086 101.850,231.400 102.400 C 231.714 102.950,231.972 103.220,231.972 103.000 C 231.972 102.780,231.714 102.150,231.400 101.600 C 231.086 101.050,230.828 100.780,230.828 101.000 M236.028 111.800 C 236.028 112.020,236.286 112.650,236.600 113.200 C 236.914 113.750,237.172 114.020,237.172 113.800 C 237.172 113.580,236.914 112.950,236.600 112.400 C 236.286 111.850,236.028 111.580,236.028 111.800 M287.800 118.400 C 289.328 119.940,290.669 121.200,290.779 121.200 C 290.889 121.200,289.728 119.940,288.200 118.400 C 286.672 116.860,285.331 115.600,285.221 115.600 C 285.111 115.600,286.272 116.860,287.800 118.400 M285.583 120.500 C 287.241 122.266,287.600 122.584,287.600 122.283 C 287.600 122.219,286.745 121.364,285.700 120.383 L 283.800 118.600 285.583 120.500 M152.865 122.617 C 152.195 124.088,152.323 124.402,153.047 123.065 C 153.386 122.440,153.588 121.854,153.496 121.763 C 153.405 121.671,153.121 122.056,152.865 122.617 M56.131 133.500 C 73.034 133.558,100.574 133.558,117.331 133.500 C 134.089 133.442,120.260 133.395,86.600 133.395 C 52.940 133.395,39.229 133.442,56.131 133.500 M273.731 133.500 C 290.634 133.558,318.174 133.558,334.931 133.500 C 351.689 133.442,337.860 133.395,304.200 133.395 C 270.540 133.395,256.829 133.442,273.731 133.500 M68.800 166.295 C 114.723 166.570,147.906 166.572,147.738 166.300 C 147.636 166.135,125.918 166.043,99.476 166.096 C 73.034 166.148,59.230 166.238,68.800 166.295 M241.862 166.300 C 241.694 166.571,275.761 166.569,322.200 166.295 C 331.880 166.238,317.806 166.148,290.924 166.096 C 264.042 166.043,241.964 166.135,241.862 166.300 M78.400 172.900 C 78.400 173.065,89.065 173.159,102.100 173.108 C 115.135 173.058,122.020 172.968,117.400 172.909 C 95.708 172.632,78.400 172.628,78.400 172.900 M128.799 172.900 C 128.800 173.065,132.625 173.164,137.300 173.121 C 145.900 173.040,144.907 172.892,134.499 172.703 C 131.364 172.647,128.799 172.735,128.799 172.900 M254.800 172.800 L 244.200 173.020 254.900 173.110 C 261.827 173.168,265.600 173.059,265.600 172.800 C 265.600 172.580,265.555 172.440,265.500 172.490 C 265.445 172.539,260.630 172.679,254.800 172.800 M280.929 173.100 C 287.710 173.161,298.690 173.161,305.329 173.100 C 311.968 173.038,306.420 172.988,293.000 172.988 C 279.580 172.988,274.148 173.038,280.929 173.100 M322.917 173.097 C 324.411 173.174,326.751 173.174,328.117 173.096 C 329.482 173.018,328.260 172.955,325.400 172.955 C 322.540 172.956,321.422 173.020,322.917 173.097 M356.520 199.200 C 356.520 200.410,356.595 200.905,356.687 200.300 C 356.778 199.695,356.778 198.705,356.687 198.100 C 356.595 197.495,356.520 197.990,356.520 199.200 M239.409 203.191 C 239.015 203.625,238.509 203.868,238.285 203.729 C 238.059 203.589,237.997 203.672,238.147 203.914 C 238.295 204.154,238.188 204.497,237.908 204.675 C 237.629 204.854,237.139 205.360,236.821 205.800 C 236.503 206.240,237.178 205.707,238.321 204.615 C 239.464 203.523,240.400 202.578,240.400 202.515 C 240.400 202.234,240.072 202.458,239.409 203.191 M356.520 210.000 C 356.520 211.210,356.595 211.705,356.687 211.100 C 356.778 210.495,356.778 209.505,356.687 208.900 C 356.595 208.295,356.520 208.790,356.520 210.000 M152.400 210.200 C 153.146 210.970,153.847 211.600,153.957 211.600 C 154.067 211.600,153.546 210.970,152.800 210.200 C 152.054 209.430,151.353 208.800,151.243 208.800 C 151.133 208.800,151.654 209.430,152.400 210.200 M236.581 210.500 L 235.000 212.200 236.700 210.619 C 238.281 209.148,238.584 208.800,238.281 208.800 C 238.216 208.800,237.451 209.565,236.581 210.500 M159.600 217.800 C 160.346 218.570,161.047 219.200,161.157 219.200 C 161.267 219.200,160.746 218.570,160.000 217.800 C 159.254 217.030,158.553 216.400,158.443 216.400 C 158.333 216.400,158.854 217.030,159.600 217.800 M228.981 218.500 L 227.400 220.200 229.100 218.619 C 230.035 217.749,230.800 216.984,230.800 216.919 C 230.800 216.616,230.452 216.919,228.981 218.500 M167.183 225.704 C 169.133 227.777,169.286 227.890,168.945 227.000 C 168.818 226.670,168.543 226.400,168.334 226.400 C 168.124 226.400,168.082 226.175,168.241 225.900 C 168.399 225.625,168.377 225.538,168.192 225.706 C 168.007 225.874,167.303 225.515,166.628 224.909 C 165.952 224.303,166.202 224.661,167.183 225.704 M221.814 225.986 C 221.189 226.638,220.480 227.059,220.239 226.922 C 219.997 226.784,219.935 226.821,220.101 227.003 C 220.266 227.186,220.092 227.710,219.713 228.168 C 219.335 228.625,219.964 228.107,221.112 227.015 C 222.261 225.923,223.200 224.978,223.200 224.915 C 223.200 224.628,222.870 224.883,221.814 225.986 M114.087 226.221 C 114.428 226.562,138.000 226.640,138.000 226.300 C 138.000 226.135,132.570 226.000,125.933 226.000 C 119.297 226.000,113.966 226.099,114.087 226.221 M141.067 226.267 C 140.920 226.413,140.803 226.728,140.806 226.967 C 140.810 227.232,140.932 227.211,141.122 226.912 C 141.336 226.576,143.176 226.385,147.016 226.300 L 152.600 226.175 146.967 226.088 C 143.868 226.039,141.213 226.120,141.067 226.267 M237.800 226.276 C 244.639 226.562,251.910 226.575,251.739 226.300 C 251.637 226.135,247.828 226.036,243.276 226.079 C 238.724 226.123,236.260 226.212,237.800 226.276 M266.000 226.388 C 272.270 226.504,277.850 226.480,278.400 226.334 C 278.950 226.188,273.820 226.093,267.000 226.122 L 254.600 226.175 266.000 226.388 M108.000 235.000 C 111.845 238.850,115.081 242.000,115.191 242.000 C 115.301 242.000,112.245 238.850,108.400 235.000 C 104.555 231.150,101.319 228.000,101.209 228.000 C 101.099 228.000,104.155 231.150,108.000 235.000 M284.796 235.100 L 277.800 242.200 284.900 235.204 C 291.496 228.705,292.181 228.000,291.896 228.000 C 291.838 228.000,288.643 231.195,284.796 235.100 M289.392 234.900 L 285.400 239.000 289.500 235.008 C 291.755 232.812,293.600 230.967,293.600 230.908 C 293.600 230.618,293.101 231.092,289.392 234.900 M103.800 235.200 C 105.771 237.180,107.473 238.800,107.583 238.800 C 107.693 238.800,106.171 237.180,104.200 235.200 C 102.229 233.220,100.527 231.600,100.417 231.600 C 100.307 231.600,101.829 233.220,103.800 235.200 M96.865 239.017 C 96.195 240.488,96.323 240.802,97.047 239.465 C 97.386 238.840,97.588 238.254,97.496 238.163 C 97.405 238.071,97.121 238.456,96.865 239.017 M296.828 238.200 C 296.828 238.420,297.086 239.050,297.400 239.600 C 297.714 240.150,297.972 240.420,297.972 240.200 C 297.972 239.980,297.714 239.350,297.400 238.800 C 297.086 238.250,296.828 237.980,296.828 238.200 M119.994 250.900 C 125.006 256.009,125.600 256.581,125.600 256.294 C 125.600 256.236,123.125 253.761,120.100 250.794 L 114.600 245.400 119.994 250.900 M126.000 252.600 C 129.845 256.450,133.081 259.600,133.191 259.600 C 133.301 259.600,130.245 256.450,126.400 252.600 C 122.555 248.750,119.319 245.600,119.209 245.600 C 119.099 245.600,122.155 248.750,126.000 252.600 M266.796 252.700 L 259.800 259.800 266.900 252.804 C 273.496 246.305,274.181 245.600,273.896 245.600 C 273.838 245.600,270.643 248.795,266.796 252.700 M272.794 251.100 L 267.400 256.600 272.900 251.206 C 278.009 246.194,278.581 245.600,278.294 245.600 C 278.236 245.600,275.761 248.075,272.794 251.100 M302.028 249.000 C 302.028 249.220,302.286 249.850,302.600 250.400 C 302.914 250.950,303.172 251.220,303.172 251.000 C 303.172 250.780,302.914 250.150,302.600 249.600 C 302.286 249.050,302.028 248.780,302.028 249.000 M86.865 259.817 C 86.195 261.288,86.323 261.602,87.047 260.265 C 87.386 259.640,87.588 259.054,87.496 258.963 C 87.405 258.871,87.121 259.256,86.865 259.817 M307.228 259.800 C 307.228 260.020,307.486 260.650,307.800 261.200 C 308.114 261.750,308.372 262.020,308.372 261.800 C 308.372 261.580,308.114 260.950,307.800 260.400 C 307.486 259.850,307.228 259.580,307.228 259.800 M137.994 268.500 C 143.006 273.609,143.600 274.181,143.600 273.894 C 143.600 273.836,141.125 271.361,138.100 268.394 L 132.600 263.000 137.994 268.500 M141.393 267.500 C 146.414 272.643,145.867 272.166,145.867 271.400 C 145.867 271.070,145.771 270.896,145.653 271.013 C 145.536 271.131,143.541 269.376,141.220 267.113 L 137.000 263.000 141.393 267.500 M251.821 267.179 C 249.640 269.368,247.739 271.086,247.595 270.997 C 247.451 270.908,247.333 271.109,247.333 271.444 C 247.333 271.779,249.283 270.109,251.667 267.734 C 254.050 265.358,256.000 263.366,256.000 263.307 C 256.000 263.022,255.508 263.478,251.821 267.179 M254.794 268.700 L 249.400 274.200 254.900 268.806 C 260.009 263.794,260.581 263.200,260.294 263.200 C 260.236 263.200,257.761 265.675,254.794 268.700 M81.665 270.617 C 80.995 272.088,81.123 272.402,81.847 271.065 C 82.186 270.440,82.388 269.854,82.296 269.763 C 82.205 269.671,81.921 270.056,81.665 270.617 M150.059 279.393 C 150.326 279.659,189.252 279.681,189.518 279.415 C 189.637 279.297,180.763 279.200,169.800 279.200 C 158.837 279.200,149.953 279.287,150.059 279.393 M197.680 279.413 C 197.945 279.679,242.874 279.660,243.140 279.394 C 243.246 279.287,233.013 279.200,220.400 279.200 C 207.787 279.200,197.562 279.296,197.680 279.413 M317.228 280.600 C 317.228 280.820,317.486 281.450,317.800 282.000 C 318.114 282.550,318.372 282.820,318.372 282.600 C 318.372 282.380,318.114 281.750,317.800 281.200 C 317.486 280.650,317.228 280.380,317.228 280.600 M71.665 291.417 C 70.995 292.888,71.123 293.202,71.847 291.865 C 72.186 291.240,72.388 290.654,72.296 290.563 C 72.205 290.471,71.921 290.856,71.665 291.417 M322.428 291.400 C 322.428 291.620,322.686 292.250,323.000 292.800 C 323.314 293.350,323.572 293.620,323.572 293.400 C 323.572 293.180,323.314 292.550,323.000 292.000 C 322.686 291.450,322.428 291.180,322.428 291.400 M66.465 302.217 C 65.795 303.688,65.923 304.002,66.647 302.665 C 66.986 302.040,67.188 301.454,67.096 301.363 C 67.005 301.271,66.721 301.656,66.465 302.217 M332.428 312.200 C 332.428 312.420,332.686 313.050,333.000 313.600 C 333.314 314.150,333.572 314.420,333.572 314.200 C 333.572 313.980,333.314 313.350,333.000 312.800 C 332.686 312.250,332.428 311.980,332.428 312.200 M56.465 323.017 C 55.795 324.488,55.923 324.802,56.647 323.465 C 56.986 322.840,57.188 322.254,57.096 322.163 C 57.005 322.071,56.721 322.456,56.465 323.017 M337.628 323.000 C 337.628 323.220,337.886 323.850,338.200 324.400 C 338.514 324.950,338.772 325.220,338.772 325.000 C 338.772 324.780,338.514 324.150,338.200 323.600 C 337.886 323.050,337.628 322.780,337.628 323.000 M51.265 333.817 C 50.595 335.288,50.723 335.602,51.447 334.265 C 51.786 333.640,51.988 333.054,51.896 332.963 C 51.805 332.871,51.521 333.256,51.265 333.817 M342.828 333.800 C 342.828 334.020,343.086 334.650,343.400 335.200 C 343.714 335.750,343.972 336.020,343.972 335.800 C 343.972 335.580,343.714 334.950,343.400 334.400 C 343.086 333.850,342.828 333.580,342.828 333.800 M41.265 354.617 C 40.595 356.088,40.723 356.402,41.447 355.065 C 41.786 354.440,41.988 353.854,41.896 353.763 C 41.805 353.671,41.521 354.056,41.265 354.617 M352.828 354.600 C 352.828 354.820,353.086 355.450,353.400 356.000 C 353.714 356.550,353.972 356.820,353.972 356.600 C 353.972 356.380,353.714 355.750,353.400 355.200 C 353.086 354.650,352.828 354.380,352.828 354.600 M36.046 365.459 C 35.671 366.283,35.669 366.620,36.040 366.961 C 36.392 367.285,36.444 367.271,36.240 366.908 C 36.088 366.638,36.166 366.037,36.414 365.574 C 36.662 365.111,36.789 364.656,36.697 364.564 C 36.605 364.472,36.312 364.875,36.046 365.459 M189.300 365.487 C 189.905 365.578,190.895 365.578,191.500 365.487 C 192.105 365.395,191.610 365.320,190.400 365.320 C 189.190 365.320,188.695 365.395,189.300 365.487 M200.100 365.487 C 200.705 365.578,201.695 365.578,202.300 365.487 C 202.905 365.395,202.410 365.320,201.200 365.320 C 199.990 365.320,199.495 365.395,200.100 365.487 M358.136 366.062 C 358.171 366.646,358.335 367.040,358.500 366.938 C 358.665 366.836,358.800 366.973,358.800 367.243 C 358.800 367.513,358.904 367.629,359.031 367.502 C 359.159 367.375,358.995 366.760,358.668 366.135 L 358.072 365.000 358.136 366.062 " stroke="none" fill="#c5c6c4" fill-rule="evenodd"></path><path id="path4" d="M305.400 86.800 C 306.483 87.900,307.460 88.800,307.570 88.800 C 307.680 88.800,306.883 87.900,305.800 86.800 C 304.717 85.700,303.740 84.800,303.630 84.800 C 303.520 84.800,304.317 85.700,305.400 86.800 M313.400 94.800 C 314.483 95.900,315.460 96.800,315.570 96.800 C 315.680 96.800,314.883 95.900,313.800 94.800 C 312.717 93.700,311.740 92.800,311.630 92.800 C 311.520 92.800,312.317 93.700,313.400 94.800 M284.783 115.700 C 285.764 116.745,286.619 117.600,286.683 117.600 C 286.984 117.600,286.666 117.241,284.900 115.583 L 283.000 113.800 284.783 115.700 M107.588 118.700 L 105.000 121.400 107.700 118.812 C 109.185 117.388,110.400 116.173,110.400 116.112 C 110.400 115.817,109.993 116.192,107.588 118.700 M285.800 120.400 C 287.771 122.380,289.473 124.000,289.583 124.000 C 289.693 124.000,288.171 122.380,286.200 120.400 C 284.229 118.420,282.527 116.800,282.417 116.800 C 282.307 116.800,283.829 118.420,285.800 120.400 M290.383 121.300 C 291.364 122.345,292.219 123.200,292.283 123.200 C 292.584 123.200,292.266 122.841,290.500 121.183 L 288.600 119.400 290.383 121.300 M297.949 130.100 C 298.529 130.839,338.800 131.233,338.800 130.500 C 338.800 130.335,329.778 130.248,318.750 130.307 C 303.031 130.392,298.559 130.305,298.050 129.907 C 297.472 129.456,297.461 129.477,297.949 130.100 M259.900 130.700 C 266.335 130.762,276.865 130.762,283.300 130.700 C 289.735 130.638,284.470 130.587,271.600 130.587 C 258.730 130.587,253.465 130.638,259.900 130.700 M57.925 169.099 C 61.514 169.166,67.274 169.166,70.725 169.099 C 74.176 169.033,71.240 168.978,64.200 168.978 C 57.160 168.979,54.336 169.033,57.925 169.099 M266.800 169.100 C 266.800 169.265,277.943 169.400,291.562 169.400 C 305.181 169.400,316.240 169.265,316.138 169.100 C 316.036 168.935,304.893 168.800,291.376 168.800 C 277.859 168.800,266.800 168.935,266.800 169.100 M320.983 194.427 C 320.785 194.747,320.841 194.822,321.138 194.638 C 321.433 194.456,321.617 194.687,321.646 195.276 C 321.684 196.019,321.730 196.055,321.884 195.458 C 322.123 194.528,321.419 193.722,320.983 194.427 M356.501 195.800 C 356.505 196.680,356.587 196.993,356.683 196.495 C 356.779 195.998,356.775 195.278,356.675 194.895 C 356.575 194.513,356.496 194.920,356.501 195.800 M324.909 202.400 C 324.909 203.390,324.987 203.795,325.082 203.300 C 325.178 202.805,325.178 201.995,325.082 201.500 C 324.987 201.005,324.909 201.410,324.909 202.400 M70.493 204.400 C 70.493 205.170,70.575 205.485,70.676 205.100 C 70.776 204.715,70.776 204.085,70.676 203.700 C 70.575 203.315,70.493 203.630,70.493 204.400 M148.800 206.200 C 149.546 206.970,150.247 207.600,150.357 207.600 C 150.467 207.600,149.946 206.970,149.200 206.200 C 148.454 205.430,147.753 204.800,147.643 204.800 C 147.533 204.800,148.054 205.430,148.800 206.200 M240.378 206.300 L 239.000 207.800 240.500 206.422 C 241.325 205.663,242.000 204.988,242.000 204.922 C 242.000 204.616,241.662 204.904,240.378 206.300 M70.493 212.800 C 70.493 213.570,70.575 213.885,70.676 213.500 C 70.776 213.115,70.776 212.485,70.676 212.100 C 70.575 211.715,70.493 212.030,70.493 212.800 M155.583 213.300 C 157.241 215.066,157.600 215.384,157.600 215.083 C 157.600 215.019,156.745 214.164,155.700 213.183 L 153.800 211.400 155.583 213.300 M233.200 213.800 C 232.228 214.790,231.523 215.600,231.633 215.600 C 231.743 215.600,232.628 214.790,233.600 213.800 C 234.572 212.810,235.277 212.000,235.167 212.000 C 235.057 212.000,234.172 212.810,233.200 213.800 M356.501 213.400 C 356.505 214.280,356.587 214.593,356.683 214.095 C 356.779 213.598,356.775 212.878,356.675 212.495 C 356.575 212.113,356.496 212.520,356.501 213.400 M324.909 214.800 C 324.909 215.790,324.987 216.195,325.082 215.700 C 325.178 215.205,325.178 214.395,325.082 213.900 C 324.987 213.405,324.909 213.810,324.909 214.800 M162.783 220.900 C 164.441 222.666,164.800 222.984,164.800 222.683 C 164.800 222.619,163.945 221.764,162.900 220.783 L 161.000 219.000 162.783 220.900 M225.600 221.800 C 224.628 222.790,223.923 223.600,224.033 223.600 C 224.143 223.600,225.028 222.790,226.000 221.800 C 226.972 220.810,227.677 220.000,227.567 220.000 C 227.457 220.000,226.572 220.810,225.600 221.800 M98.800 226.110 C 98.800 226.171,100.195 227.566,101.900 229.210 L 105.000 232.200 102.010 229.100 C 99.233 226.221,98.800 225.817,98.800 226.110 M291.200 229.000 C 289.561 230.650,288.310 232.000,288.420 232.000 C 288.530 232.000,289.961 230.650,291.600 229.000 C 293.239 227.350,294.490 226.000,294.380 226.000 C 294.270 226.000,292.839 227.350,291.200 229.000 M110.393 241.300 C 112.699 243.665,114.634 245.600,114.693 245.600 C 114.982 245.600,114.494 245.087,110.500 241.193 L 106.200 237.000 110.393 241.300 M282.393 241.500 L 278.200 245.800 282.500 241.607 C 284.865 239.301,286.800 237.366,286.800 237.307 C 286.800 237.018,286.287 237.506,282.393 241.500 M118.800 245.800 C 120.881 247.890,122.674 249.600,122.784 249.600 C 122.894 249.600,121.281 247.890,119.200 245.800 C 117.119 243.710,115.326 242.000,115.216 242.000 C 115.106 242.000,116.719 243.710,118.800 245.800 M273.992 245.900 L 270.200 249.800 274.100 246.008 C 277.722 242.486,278.182 242.000,277.892 242.000 C 277.833 242.000,276.078 243.755,273.992 245.900 M128.393 258.900 C 130.699 261.265,132.634 263.200,132.693 263.200 C 132.982 263.200,132.494 262.687,128.500 258.793 L 124.200 254.600 128.393 258.900 M264.393 259.100 L 260.200 263.400 264.500 259.207 C 266.865 256.901,268.800 254.966,268.800 254.907 C 268.800 254.618,268.287 255.106,264.393 259.100 M136.800 263.400 C 138.881 265.490,140.674 267.200,140.784 267.200 C 140.894 267.200,139.281 265.490,137.200 263.400 C 135.119 261.310,133.326 259.600,133.216 259.600 C 133.106 259.600,134.719 261.310,136.800 263.400 M255.992 263.500 L 252.200 267.400 256.100 263.608 C 259.722 260.086,260.182 259.600,259.892 259.600 C 259.833 259.600,258.078 261.355,255.992 263.500 M145.400 275.600 C 147.150 277.360,148.671 278.800,148.781 278.800 C 148.891 278.800,147.550 277.360,145.800 275.600 C 144.050 273.840,142.529 272.400,142.419 272.400 C 142.309 272.400,143.650 273.840,145.400 275.600 M247.391 275.700 L 244.200 279.000 247.500 275.809 C 250.565 272.846,250.982 272.400,250.691 272.400 C 250.630 272.400,249.145 273.885,247.391 275.700 M190.700 335.882 C 191.195 335.978,192.005 335.978,192.500 335.882 C 192.995 335.787,192.590 335.709,191.600 335.709 C 190.610 335.709,190.205 335.787,190.700 335.882 M203.100 335.882 C 203.595 335.978,204.405 335.978,204.900 335.882 C 205.395 335.787,204.990 335.709,204.000 335.709 C 203.010 335.709,202.605 335.787,203.100 335.882 M186.305 365.483 C 186.802 365.579,187.522 365.575,187.905 365.475 C 188.287 365.375,187.880 365.296,187.000 365.301 C 186.120 365.305,185.807 365.387,186.305 365.483 M203.905 365.483 C 204.402 365.579,205.122 365.575,205.505 365.475 C 205.887 365.375,205.480 365.296,204.600 365.301 C 203.720 365.305,203.407 365.387,203.905 365.483 " stroke="none" fill="#5b6a5b" fill-rule="evenodd"></path></g></svg>